<svg id="visual" viewBox="0 0 960 540" width="960" height="540" xmlns="http://www.w3.org/2000/svg" xmlns:xlink="http://www.w3.org/1999/xlink" version="1.1"><rect width="960" height="540" fill="#26ac6b"></rect><g><g transform="translate(189 454)"><path d="M0 -72.8L63.1 -36.4L63.1 36.4L0 72.8L-63.1 36.4L-63.1 -36.4Z" fill="none" stroke="#297EA6" stroke-width="2"></path></g><g transform="translate(649 248)"><path d="M0 -48L41.6 -24L41.6 24L0 48L-41.6 24L-41.6 -24Z" fill="none" stroke="#297EA6" stroke-width="2"></path></g><g transform="translate(833 443)"><path d="M0 -66L57.2 -33L57.2 33L0 66L-57.2 33L-57.2 -33Z" fill="none" stroke="#297EA6" stroke-width="2"></path></g><g transform="translate(746 86)"><path d="M0 -71L61.5 -35.5L61.5 35.5L0 71L-61.5 35.5L-61.5 -35.5Z" fill="none" stroke="#297EA6" stroke-width="2"></path></g><g transform="translate(580 507)"><path d="M0 -68L58.9 -34L58.9 34L0 68L-58.9 34L-58.9 -34Z" fill="none" stroke="#297EA6" stroke-width="2"></path></g><g transform="translate(327 98)"><path d="M0 -55L47.6 -27.5L47.6 27.5L0 55L-47.6 27.5L-47.6 -27.5Z" fill="none" stroke="#297EA6" stroke-width="2"></path></g><g transform="translate(353 368)"><path d="M0 -45L39 -22.5L39 22.5L0 45L-39 22.5L-39 -22.5Z" fill="none" stroke="#297EA6" stroke-width="2"></path></g><g transform="translate(64 234)"><path d="M0 -62L53.7 -31L53.7 31L0 62L-53.7 31L-53.7 -31Z" fill="none" stroke="#297EA6" stroke-width="2"></path></g><g transform="translate(809 258)"><path d="M0 -66L57.2 -33L57.2 33L0 66L-57.2 33L-57.2 -33Z" fill="none" stroke="#297EA6" stroke-width="2"></path></g><g transform="translate(893 19)"><path d="M0 -53L45.9 -26.5L45.9 26.5L0 53L-45.9 26.5L-45.9 -26.5Z" fill="none" stroke="#297EA6" stroke-width="2"></path></g><g transform="translate(491 268)"><path d="M0 -68L58.9 -34L58.9 34L0 68L-58.9 34L-58.9 -34Z" fill="none" stroke="#297EA6" stroke-width="2"></path></g><g transform="translate(424 512)"><path d="M0 -52L45 -26L45 26L0 52L-45 26L-45 -26Z" fill="none" stroke="#297EA6" stroke-width="2"></path></g></g></svg>