<?xml version="1.0" encoding="UTF-8" standalone="no"?>
<!-- Created with Inkscape (http://www.inkscape.org/) -->

<svg
   version="1.1"
   id="svg1"
   width="196.16476"
   height="196.60001"
   viewBox="0 0 196.16476 196.60001"
   sodipodi:docname="aclzl-hk5yf.jpg"
   xmlns:inkscape="http://www.inkscape.org/namespaces/inkscape"
   xmlns:sodipodi="http://sodipodi.sourceforge.net/DTD/sodipodi-0.dtd"
   xmlns="http://www.w3.org/2000/svg"
   xmlns:svg="http://www.w3.org/2000/svg">
  <defs
     id="defs1" />
  <sodipodi:namedview
     id="namedview1"
     pagecolor="#ffffff"
     bordercolor="#000000"
     borderopacity="0.25"
     inkscape:showpageshadow="2"
     inkscape:pageopacity="0.0"
     inkscape:pagecheckerboard="0"
     inkscape:deskcolor="#d1d1d1" />
  <g
     inkscape:groupmode="layer"
     inkscape:label="Image"
     id="g1"
     transform="translate(-351.00583,-114.06911)">
    <path
       style="opacity:1;fill:#06f0d7;fill-opacity:1;fill-rule:nonzero;stroke:#04f0d4;stroke-width:6.381;stroke-dasharray:none;stroke-opacity:1"
       d="m 405.5704,305.32299 c -12.8953,-5.8174 -31.21433,-33.67068 -40.89588,-62.18046 -9.02281,-26.57044 -12.99426,-62.14888 -8.75294,-78.41465 5.15,-19.75009 19.88104,-33.82273 43.47392,-41.53047 15.404,-5.03248 31.8045,-6.60613 59.3408,-5.69377 25.2039,0.83509 36.721,3.11912 52.0238,10.31718 16.5483,7.78395 28.8892,22.89478 31.9519,39.12353 3.059,16.20875 0.2564,45.14549 -6.6317,68.47257 -9.1147,30.86801 -27.7607,61.71328 -41.6169,68.84493 -12.3943,6.3793 -18.3401,3.55035 -28.97,-13.78367 -7.6852,-12.53226 -10.6953,-15.30346 -16.6229,-15.30346 -5.6148,0 -9.3573,3.81588 -17.8257,18.17528 -8.1647,13.84441 -14.6104,16.87393 -25.4744,11.97299 z m 13.6226,-8.89341 c 1.5114,-1.3409 4.682,-5.84554 7.046,-10.01034 8.4201,-14.83451 16.7662,-21.22826 25.8436,-19.79818 l 4.8558,0.76504 -4.9371,-14.1414 c -9.4016,-26.92886 -18.974,-43.79942 -32.8899,-57.96651 -9.3442,-9.51273 -17.728,-13.91465 -26.4901,-13.90854 -8.9184,0.006 -13.56978,3.07351 -17.64199,11.63395 -3.06851,6.45042 -8.4105,11.02745 -7.838,22.46229 1.01425,4.98916 0.86466,15.35442 5.12353,28.80705 7.71074,24.90834 26.08746,49.90921 36.86736,54.40062 4.0564,1.69009 6.1543,1.22217 10.0608,-2.24398 z m 76.4938,-2.76904 c 11.4483,-10.55044 22.3894,-29.66429 30.1252,-52.62717 5.6934,-16.90081 7.9655,-27.61329 9.8229,-46.31472 2.1369,-21.51517 -0.4772,-34.06751 -9.6481,-46.32729 -2.0561,-2.74871 -4.8014,-5.55818 -6.1007,-6.24328 -2.2277,-1.17456 -2.3504,-0.85107 -2.1526,5.67069 0.1749,5.76171 -0.3464,7.74627 -3.1232,11.88788 -1.8332,2.73435 -5.5984,6.44934 -8.3669,8.25552 -4.3412,2.83209 -6.4868,3.3407 -15.5927,3.69618 -12.4854,0.48742 -17.0744,-0.65655 -42.1325,-10.50319 -27.1312,-10.66122 -32.1408,-11.93297 -47.0019,-11.93188 -11.7138,8.5e-4 -13.5304,0.31239 -20.3461,3.48916 -13.02634,6.07159 -18.49482,16.78963 -18.49482,36.24978 0,11.42077 0.77879,11.97215 4.18024,2.95944 4.216,-11.17118 14.17686,-18.8898 24.37738,-18.8898 21.2524,0 46.0699,24.19426 61.0325,59.50023 2.0867,4.92369 7.2023,18.32715 11.3677,29.78549 12.6713,34.85525 13.8495,36.90476 21.2158,36.90476 4.0514,0 5.7466,-0.86987 10.8378,-5.5618 z m 1.6202,-130.27136 c 8.4365,-2.30778 14.0703,-10.13966 12.2981,-17.09638 -1.0418,-4.0901 -7.9723,-10.38918 -16.1626,-14.69009 -10.4426,-5.48362 -19.3594,-6.52095 -50.7439,-5.90327 -25.4811,0.5015 -28.246,0.7726 -38.3364,3.75906 -9.6598,2.85896 -18.1726,6.93128 -25.28642,12.09629 -3.7306,2.70874 -1.434,3.21488 5.44942,1.20092 9.0695,-2.65359 26.2625,-2.4349 36.8999,0.46933 4.7059,1.28482 17.4729,5.88213 28.3711,10.21625 28.5844,11.3678 36.3648,12.99685 47.5108,9.94789 z"
       id="path10"
       sodipodi:nodetypes="sccssssssssssscscsscsccssscsssssssssssssscssssssssssss" />
  </g>
</svg>
